<?xml version="1.0" encoding="UTF-8" standalone="no"?>
<svg xmlns:rdf="http://www.w3.org/1999/02/22-rdf-syntax-ns#" xmlns="http://www.w3.org/2000/svg" height="93.5429" width="227.685" version="1.1" xmlns:cc="http://creativecommons.org/ns#" xmlns:dc="http://purl.org/dc/elements/1.1/">
 <g fill-rule="evenodd" transform="translate(-236.157 -485.591)">
  <path d="m240.157 552.82h219.685v-2.10987h-219.685v2.10987z" fill="#231f20"/>
  <path d="m410.995 564.348 8.3075 10.4136c0.12375 0.124 0.2475 0.124 0.37125 0.124 0.2475 0 0.2475 0 0.2475-0.124v-11.0336c0-0.99175 0.125-1.48737 0.86875-1.61137 0.12375 0 0.12375 0 0.12375-0.124 0 0 0-0.124-0.12375-0.124h-2.60375c-0.2475 0-0.2475 0.124-0.2475 0.124 0 0.124 0 0.124 0.12375 0.248 0.74375 0.124 0.8675 0.49563 0.8675 1.61138l0.12375 8.30662-8.05875-10.166c0-0.124-0.1225-0.124-0.37125-0.124-0.2475 0-0.3725 0.124-0.3725 0.124v10.4135c0 1.48788-0.12375 2.108-0.8675 2.2315-0.12375 0-0.2475 0.124-0.2475 0.124 0 0.124 0.12375 0.124 0.2475 0.124h2.60375c0.24875 0 0.24875 0 0.24875-0.124s0-0.124-0.125-0.124c-0.74375-0.24762-0.8675-0.61963-0.8675-2.10738l-0.24875-8.18225m-29.7525 8.67826c-0.3725 0.86775-0.745 1.48787-1.365 1.61137-0.12375 0-0.2475 0-0.2475 0.124s0.12375 0.124 0.2475 0.124h2.7275c0.12375 0 0.12375 0 0.12375-0.124 0 0 0-0.124-0.12375-0.124-0.37125 0-0.61875-0.24762-0.61875-0.49563 0-0.37212 0-0.49612 0.2475-1.11574l0.99125-3.09913 0.125-0.124h3.71875c0.12375 0 0.12375 0 0.2475 0.124l1.11625 3.22312c0.37125 0.99175 0.2475 1.36388-0.2475 1.48738l-0.125 0.124c0 0.124 0 0.124 0.125 0.124h3.34625c0.125 0 0.24875 0 0.24875-0.124 0 0-0.12375-0.124-0.24875-0.124-0.74375-0.1235-1.115-0.49563-1.735-1.98338l-4.09125-10.6616s0-0.124-0.2475-0.124c-0.125 0-0.24875 0.124-0.24875 0.124l-3.96625 11.0336zm2.355-3.84325s-0.12375 0 0-0.12401l1.4875-4.58687c0.12375-0.24813 0.12375-0.24813 0.2475 0l1.61125 4.58687c0 0.12401 0 0.12401-0.12375 0.12401h-3.2225m-100.916-1.48775c0 0.124 0.124 0.24799 0.24812 0.24799 0.61963 0 1.36375 0.24813 1.85938 0.49613 1.36375 0.74363 1.98387 2.10737 1.85975 3.47112-0.124 1.98351-1.85975 2.47951-2.7275 2.47951-0.61962 0-1.48775 0-1.98388-0.12401-0.49612-0.37199-0.49612-0.62012-0.61962-1.48775v-3.71925-6.44674c0-0.12363 0.1235-0.12363 0.2475-0.24763h1.36437c1.98338 0 2.72751 1.11575 2.72751 2.355 0 1.85987-0.99225 2.7275-2.72751 2.85162-0.12412 0-0.24812 0-0.24812 0.12401zm-2.7275 2.23187v3.71875c-0.124 0.49612-0.124 0.99175-0.86775 1.11575 0 0-0.124 0-0.124 0.124l0.124 0.124h4.463c3.0995 0 4.58687-1.85937 4.58687-3.71875 0-2.47987-2.1075-3.47162-3.47124-3.84375 0.74412-0.124 2.47949-0.99163 2.47949-2.851 0-1.48775-1.11575-2.7275-4.09075-2.7275h-3.84375c-0.12362 0-0.24762 0-0.24762 0.124 0 0 0.124 0.124 0.24762 0.124 0.496 0.124 0.74413 0.372 0.74413 0.99175v3.71913 3.09962m28.8862-1.36375 3.47112 5.0825c0.74413 1.11575 1.73588 1.23975 2.72763 1.23975h0.62c0.12412 0 0.24813 0 0.24813-0.124s-0.12401-0.124-0.24813-0.124c-0.496-0.1235-1.11563-0.37163-1.85975-1.36325l-3.34725-4.711c1.85937-0.62013 2.85112-1.98388 2.85112-3.34763 0-1.36374-0.61962-2.10737-1.23924-2.60349-0.86826-0.61963-2.10801-0.74363-3.09963-0.74363h-3.71925c-0.124 0-0.248 0-0.248 0.124s0.124 0.124 0.248 0.248c0.61962 0 0.74362 0.37163 0.74362 0.99175v3.59513 3.09962 3.71875c-0.124 0.49612-0.248 0.86825-0.74362 0.99175-0.248 0-0.248 0.124-0.248 0.124 0 0.124 0 0.124 0.248 0.124h2.97562c0.124 0 0.124 0 0.124-0.124 0.124-0.124 0-0.124-0.124-0.124-0.49612-0.1235-0.74412-0.49563-0.74412-0.99175-0.12363-0.74362-0.12363-2.23137-0.12363-3.59475v-7.31487c0-0.124 0.12363-0.124 0.12363-0.124 0.248-0.12363 0.74412-0.12363 1.24012-0.12363 1.85938 0 2.97513 1.11575 2.97513 2.72712 0 2.47951-1.85938 2.97563-2.7275 2.97563-0.124 0-0.24763 0.248-0.124 0.372m21.5718 1.36375c0 1.61138 0 2.97513-0.124 3.71875-0.124 0.49612-0.24812 0.86825-0.74375 0.99175-0.124 0-0.248 0-0.248 0.124s0.124 0.124 0.248 0.124h6.57087c0.37163 0 0.37163-0.124 0.49563-0.49562 0-0.37201 0.248-1.48775 0.248-1.61176 0-0.124 0-0.248-0.124-0.248s-0.124 0.124-0.124 0.248c-0.124 0.74363-0.37162 0.99163-0.86775 1.23975-0.372 0.248-0.99162 0.248-1.61175 0.248-1.73538 0-2.3555 0-2.3555-1.36374v-2.97513-1.48775c0-0.124 0-0.124 0.124-0.124h2.85163c0.61962 0.124 0.74362 0.3715 0.86762 0.61962v0.62013c0 0.124 0.124 0.124 0.124 0.124 0.12412 0 0.12412-0.124 0.12412-0.37213 0-0.12399 0.124-0.74362 0.124-0.99162 0-0.62012 0.124-0.86825 0.124-0.99225s0-0.124-0.124-0.124c0 0-0.124 0-0.24812 0.248-0.124 0.12412-0.372 0.12412-0.74363 0.12412-0.372 0.12401-2.85149 0.12401-3.09962 0.12401-0.124 0-0.124-0.12401-0.124-0.24813v-4.71088c0-0.12399 0-0.12399 0.124-0.12399h2.72762c0.86763 0.12399 1.11563 0.37199 1.23975 0.62012v0.61963c0 0.124 0.124 0.248 0.124 0.248 0.124 0 0.124-0.124 0.124-0.248 0.12401-0.24763 0.12401-0.99176 0.12401-1.11576 0.12349-0.49562 0.12349-0.74362 0.12349-0.86762v-0.12413c-0.12349 0-0.12349 0.12413-0.3715 0.12413h-0.62012-5.82675c-0.124 0-0.248 0.124-0.248 0.124 0 0.124 0.124 0.124 0.248 0.248 0.61975 0 0.74375 0.37163 0.74375 0.99175 0.124 0.49562 0.124 0.99162 0.124 3.59513v3.09962m65.336-5.57913 8.43 10.4136c0.12375 0.124 0.12375 0.124 0.37125 0.124 0.125 0 0.125 0 0.125-0.124v-11.0336c0-0.99175 0.12375-1.48737 0.8675-1.61137 0.12375 0 0.2475 0 0.2475-0.124 0 0-0.12375-0.124-0.2475-0.124h-2.60375c-0.24875 0-0.24875 0.124-0.24875 0.124 0 0.124 0 0.124 0.125 0.248 0.74375 0.124 0.8675 0.49563 0.8675 1.61138l0.2475 8.30662-8.0575-10.166c-0.12375-0.124-0.24875-0.124-0.49625-0.124-0.24875 0-0.3725 0.124-0.3725 0.124v10.4135c0 1.48788-0.12375 2.108-0.8675 2.2315-0.12375 0-0.12375 0.124-0.12375 0.124 0 0.124 0 0.124 0.12375 0.124h2.7275c0.12375 0 0.12375 0 0.12375-0.124s0-0.124-0.12375-0.124c-0.74375-0.24762-0.8675-0.61963-0.8675-2.10738l-0.2475-8.18225m-20.4562-2.35537s-0.125-0.124-0.24875-0.124-0.2475 0.124-0.2475 0.124l-4.71125 10.6616-4.95875-10.6616s-0.12375-0.124-0.24875-0.124c-0.2475 0-0.2475 0.124-0.2475 0.124l-1.24 11.1576c-0.12375 0.61962-0.2475 1.48737-1.115 1.48737l-0.125 0.124c0 0.124 0.125 0.124 0.125 0.124h2.85125s0.12375 0 0.12375-0.124 0-0.124-0.12375-0.124c-0.74375-0.1235-0.8675-0.49563-0.74375-1.36325l0.74375-7.93462c0.2475 0.37212 4.09125 8.67825 4.09125 8.67825 0.2475 0.74362 0.37125 0.86762 0.495 0.86762 0.125 0 0.24875-0.124 0.62-0.99162l3.9675-8.92625 0.74375 8.0585c0.12375 1.11574-0.12375 1.48787-0.61875 1.61137-0.125 0-0.24875 0-0.24875 0.124s0.12375 0.124 0.24875 0.124h3.09875c0.12375 0 0.2475 0 0.2475-0.124s-0.12375-0.124-0.2475-0.124c-0.8675-0.24762-0.99125-1.36325-0.99125-1.98338l-1.24-10.6616m-20.705 13.1411c2.2325 0 4.09125-1.36387 4.09125-3.59524 0-1.36325-0.37125-2.60351-3.09875-4.33938-1.61213-0.99175-2.60375-1.85937-2.60375-2.97513 0-1.23975 0.86812-1.98337 2.1075-1.98337 1.48875 0 2.23125 0.74362 2.48 1.85938 0 0.12399 0.12375 0.24799 0.12375 0.24799 0.12375 0 0.12375-0.124 0.12375-0.37199v-1.85938s0-0.124-0.12375-0.124h-0.62c-0.37125-0.124-1.11625-0.37212-1.85875-0.37212-2.1085 0-3.34825 1.36374-3.34825 3.09912 0 1.61188 0.99175 2.6035 3.0995 3.96725 1.4875 1.11625 2.48 2.108 2.48 3.34775 0 1.36375-0.8675 2.4795-2.48 2.4795-1.48775 0-2.60338-0.62012-2.7275-1.85988-0.124-0.24812-0.124-0.49562-0.124-0.61962 0-0.12413 0-0.24812-0.124-0.24812s-0.124 0.12399-0.124 0.37212c0 0.2475-0.124 0.86763 0 1.73538 0 0.496 0 0.62012 0.248 0.62012 0.49612 0.3715 1.36375 0.61962 2.479 0.61962m-10.5375-8.30624c0-2.60351 0-3.09951 0.124-3.59513 0-0.62012 0.124-0.99175 0.74412-1.11575 0.124 0 0.124 0 0.124-0.124 0 0 0-0.124-0.124-0.124h-3.09962c-0.1235 0-0.2475 0.124-0.2475 0.124 0.124 0.124 0.124 0.124 0.2475 0.124 0.37212 0.124 0.74412 0.49563 0.74412 1.11575 0.124 0.49562 0.124 0.99162 0.124 3.59513v3.09962c0 1.61138 0 2.97513-0.124 3.71875-0.124 0.49612-0.248 0.99175-0.74412 0.99175-0.1235 0-0.2475 0-0.2475 0.124 0.124 0.124 0.124 0.124 0.2475 0.124h5.95112c0.86775 0 0.99175 0 1.11575-0.49562 0.12401-0.496 0.24813-1.48775 0.24813-1.73576 0-0.124 0-0.24812-0.12412-0.24812-0.12401 0-0.12401 0.12412-0.12401 0.24812-0.124 0.37201-0.248 0.74413-0.49612 1.11563-0.3715 0.49612-0.99163 0.49612-1.98388 0.49612-1.36325 0-1.61125-0.124-1.98337-0.37199-0.248-0.37213-0.372-1.36376-0.372-3.96688v-3.09962m-21.9439-4.21525 1.85988 0.12399c1.61175 0 1.98387 0.37213 2.10787 0.86813v0.24763c0 0.248 0 0.248 0.124 0.248 0 0 0.12401-0.124 0.12401-0.248v-1.85938-0.24812c-0.12401 0-0.62013 0.24812-1.73576 0.24812h-5.82725c-0.1235 0-0.86762-0.124-1.36325-0.124-0.372 0-0.62012-0.24812-0.74412-0.24812 0 0-0.124 0.24812-0.124 0.37212s-0.37162 1.61175-0.37162 1.73537v0.24801c0.12399 0 0.12399-0.124 0.24812-0.24801 0-0.12362 0.1235-0.24762 0.2475-0.49562 0.248-0.37213 0.74413-0.49613 1.73587-0.49613l2.23138-0.12399v7.31487c0 1.61138 0 2.97513-0.124 3.71875 0 0.49612-0.124 0.86825-0.74362 0.99175l-0.124 0.124c0 0.124 0.124 0.124 0.124 0.124h3.22312s0.124 0 0.124-0.124-0.124-0.124-0.248-0.124c-0.49613-0.1235-0.62013-0.49563-0.62013-0.99175-0.124-0.74362-0.124-2.10737-0.124-3.71875v-7.31487m-28.1421 7.31487c0 1.61138 0 2.97513-0.124 3.71875-0.124 0.49612-0.24813 0.86825-0.74363 0.99175-0.12412 0-0.24812 0-0.24812 0.124s0.124 0.124 0.24812 0.124h6.57075c0.37163 0 0.37163-0.124 0.49563-0.49562 0-0.37201 0.248-1.48775 0.248-1.61176 0-0.124 0-0.248-0.124-0.248s-0.124 0.124-0.248 0.248c0 0.74363-0.24763 0.99163-0.74375 1.23975-0.372 0.248-0.99213 0.248-1.61175 0.248-1.73588 0-2.3555 0-2.3555-1.36374v-2.97513-1.48775c0-0.124 0-0.124 0.124-0.124h2.85112c0.62013 0.124 0.74413 0.3715 0.86813 0.61962v0.62013c0 0.124 0.124 0.124 0.124 0.124 0.12412 0 0.12412-0.124 0.12412-0.37213 0-0.12399 0.124-0.74362 0.124-0.99162 0-0.62012 0.124-0.86825 0.124-0.99225s0-0.124-0.124-0.124c0 0-0.124 0-0.24812 0.248-0.124 0.12412-0.372 0.12412-0.74413 0.12412-0.372 0.12401-2.8515 0.12401-3.09912 0.12401-0.124 0-0.124-0.12401-0.124-0.24813v-4.71088c0-0.12399 0-0.12399 0.124-0.12399h2.72712c0.86813 0.12399 1.11613 0.37199 1.24025 0.62012v0.61963c0 0.124 0.124 0.248 0.124 0.248 0.124 0 0.124-0.124 0.124-0.248 0.124-0.24763 0.124-0.99176 0.124-1.11576 0.124-0.49562 0.124-0.74362 0.124-0.86762v-0.12413c-0.124 0-0.124 0.12413-0.372 0.12413h-0.62012-5.82663c-0.12412 0-0.24812 0.124-0.24812 0.124 0 0.124 0.124 0.124 0.24812 0.248 0.61963 0 0.74363 0.37163 0.74363 0.99175 0.124 0.49562 0.124 0.99162 0.124 3.59513v3.09962" fill="#231f20"/>
  <path d="m347.893 524.552-33.3496-34.9612h65.3346l-31.985 34.9612" fill="#c8103a"/>
  <path d="m270.284 517.608c1.85937-0.1225 4.587-0.1225 6.44687-0.1225 9.79388 0 13.5131 1.115 13.5131 4.215 0 3.09875-4.21538 3.96625-12.3975 3.96625h-7.5625v-8.05875zm-9.54638 19.3412c0 2.3555-3.09962 2.97513-5.95062 2.97513v1.48775h26.9024c14.7534 0 21.6958-3.09913 21.6958-7.8105 0-3.59525-5.083-6.07488-13.2651-6.94238 6.07475-0.49625 10.166-2.35625 10.166-5.455 0-4.95875-9.66988-6.075-24.4234-6.075-2.9755 0-9.42187 0.12375-12.7695 0.2475-3.84275 0-5.57862 0.12375-8.30612 0.12375v1.48875c4.09125 0 5.95062 0.61875 5.95062 4.215v15.745zm9.54638-8.92625h6.07475c10.7856 0 16.6128 1.61125 16.6128 5.70263 0 3.71925-4.95938 5.207-12.3979 5.207-7.1905 0-10.2896-1.36375-10.2896-4.58738v-6.32225m171.954 6.57025c0-1.61175 0.49625-3.22312 4.215-3.22312v-1.48775h-19.7125v1.48775c3.1 0 5.95125 0.37212 5.95125 3.22312v3.84325c-3.595 0.99225-7.06625 0.99225-10.91 0.99225-10.4138 0-21.075-2.4795-21.075-10.9108 0-7.4375 8.43-11.2812 21.3238-11.2812 8.92625 0 15.6212 1.61125 17.6038 6.075h1.6125v-7.81125h-1.73625c-0.495 0.3725-1.115 0.49625-2.1075 0.49625-2.85125 0-8.55375-1.115-16.8612-1.115-23.6788 0-30.25 8.6775-30.25 14.1329 0 7.81062 11.53 13.0171 29.0112 13.0171 7.06625 0 13.265-0.61963 22.935-2.4795v-4.959m-130.794 6.81888h13.3896v-1.48775c-2.23187 0-5.083-0.24813-4.58737-4.71151l2.10737-15.1249 20.2085 21.3241h2.97513l19.961-21.9441 2.23125 15.1252c0.74375 4.46337-1.11625 5.33112-4.96 5.33112v1.48775h20.085v-1.48775c-2.97625 0-5.08375-0.49562-5.33125-2.6035l-2.975-17.8529c-0.24875-1.9825 1.115-2.47875 4.09-2.47875v-1.48875h-13.3888l-17.4804 19.2169-18.4726-19.2169h-14.1332v1.48875c2.6035 0 4.46338 0.61875 3.96725 4.33875l-1.98338 14.505c-0.49612 3.59575-2.4795 4.09138-5.70312 4.09138v1.48775" fill="#231f20"/>
 </g>
</svg>
