<svg id="f41abc19-d62b-4e47-abb5-25802aacae6e" data-name="Слой 1" xmlns="http://www.w3.org/2000/svg" viewBox="0 0 485.454 90.144"><title>1</title><g id="bdc2bb88-1de8-4544-9605-38b367eba19b" data-name="sprite7"><g id="e07c2f79-6872-4748-94c8-c1a46f8e768a" data-name="shape1"><path d="M201.308,55.156l-8.4,4.894a6.294,6.294,0,0,0-3.506-2.995,11.936,11.936,0,0,0-5.04-1.095q-5.44-.038-5.441,3.1,0,2.008,6.318,2.775,18.954,2.484,18.954,13.476,0,14.1-20.524,14.134-12.564,0-18.48-8.437l8.363-5.4q3.872,5.478,11.431,5.514,6.246,0,6.245-3.141,0-2.447-8.107-3.688-10.592-1.68-13.586-4.967a11.176,11.176,0,0,1-3.1-8,12.574,12.574,0,0,1,4.492-9.933q4.821-4.2,12.672-4.164,13.367,0,17.713,7.925M160.7,42.7H146.528V31.418H160.7V42.7m0,45.65H146.528V48.327H160.7V88.353M122.388,47.56q-3.47-5.331-10.445-5.332H106.83V77.543h4.31q14.207-.036,14.206-18.114,0-7.377-2.958-11.869m20.159,11.979q0,11.8-5.916,19.209-7.743,9.568-24.542,9.6H90.579V31.418H113.55q13.8,0,21.62,8.035,7.341,7.558,7.377,20.086" style="fill:#fff;fill-rule:evenodd"/></g></g><g id="a7d26d17-b7ce-4632-a9c6-1bb5e8a92910" data-name="sprite8"><g id="b25f090b-c4d5-478a-8b4e-680d0081c9c9" data-name="shape2"><path d="M279.194,54.558h.11q4.272-6.72,14.17-7.34V62.081a17.977,17.977,0,0,0-7.706-2.045,10.1,10.1,0,0,0-6.574,2.739V88.339H265.025V48.313h14.169v6.245m-38.017-9.2q-2.265-3.724-7.341-3.689-5.112-.036-7.45,3.908-2.556,4.346-2.556,14.279,0,10.592,2.958,14.9,2.227,3.322,7.048,3.323,4.748,0,7.049-3.323,2.958-4.383,2.958-14.9,0-10.3-2.666-14.5m19.83,14.5q0,13.659-7.231,21.584-7.3,8-19.94,8-12.672,0-19.939-8-7.231-7.925-7.231-21.584t7.231-21.51q7.266-7.925,19.939-7.925,12.636,0,19.94,7.925,7.231,7.852,7.231,21.51" style="fill:#fff;fill-rule:evenodd"/></g></g><g id="b23ef832-ec52-4423-b6ab-4f31f960d2f6" data-name="sprite9"><g id="f2bed71f-407d-4307-b524-bf4a539a8bbc" data-name="shape3"><path d="M419.133,57.457h-6.719V76.374q0,3.4,3.944,3.4l3.14-.511v9.385l-7.413.8q-7.815-.037-10.993-2.739-2.849-2.484-2.848-8.144V57.457H392.4v-9.13h6.61L400,34.194h12.417V48.327h6.719v9.13m-47.841-1.5q-4.236-.038-5.551,4.893L354.018,58.37q2.3-11.175,17.822-11.139Q389.7,47.2,389.7,58.954V80.465q0,5.623,1.571,7.888H376.734a16.625,16.625,0,0,1-.585-3.579,17.545,17.545,0,0,1-12.2,4.675,12.652,12.652,0,0,1-7.414-2.265q-4.455-3.139-4.455-9.6,0-7.6,7.669-11.212,6.171-3.032,16.288-3.068V59.94q0-3.98-4.748-3.98m-5.478,20.414a3.98,3.98,0,0,0,1.607,3.251,4.455,4.455,0,0,0,2.775,1.022A10.414,10.414,0,0,0,376,78.383V70.056q-10.19,1.316-10.189,6.318M329.988,47.56q-3.469-5.331-10.408-5.332h-5.15V77.543h4.31q14.207-.036,14.206-18.114,0-7.377-2.958-11.869m20.159,11.979q0,11.8-5.916,19.209-7.743,9.568-24.542,9.6h-21.51V31.418H321.15q13.8,0,21.62,8.035,7.341,7.558,7.377,20.086" style="fill:#fff;fill-rule:evenodd"/></g><g id="aae1f6f2-f910-466d-9644-50c7cc0e4675" data-name="text4"><g id="beec0e93-969d-4fed-9b04-3d99e33e4f9a" data-name="font Franklin Gothic Heavy T0"><path d="M424.585,37.57h1.509V35.827h-5.135V37.57h1.509v5.535h2.117V37.57" style="fill:#fff;fill-rule:evenodd"/></g><g id="a69d64d7-6f0e-48da-943b-e8e4dd681c66" data-name="font Franklin Gothic Heavy M0"><path d="M434.656,35.827h-2.928l-1.007,3.865-1.056-3.865h-2.922v7.278h1.674V37.9l1.4,5.2h1.418l1.344-5.2v5.2h2.074V35.827" style="fill:#fff;fill-rule:evenodd"/></g></g></g><g id="a94df980-600b-4de0-8ef9-a2fdf756623b" data-name="text5"><g id="a56fdbee-c1fc-4236-bc18-0026e033e5de" data-name="font Franklin Gothic No.2 T0"><path d="M5.733,20.831V4.131H0V0H17.413V4.131H11.68v16.7H5.733" style="fill:#ffbe00;fill-rule:evenodd"/></g><g id="e2a6a5ed-53da-4c65-8c9d-5e6c2801256b" data-name="font Franklin Gothic No.2 H0"><path d="M25.183,20.831V0h5.948V7.912h5.907V0h5.948V20.831H37.038V12.542H31.131v8.289H25.183" style="fill:#ffbe00;fill-rule:evenodd"/></g><g id="efd5a8bc-374e-4986-b154-0f7374519b2a" data-name="font Franklin Gothic No.2 E0"><path d="M51.935,20.831V0H67.612V4.293H57.883V8.074h6.23v4.293h-6.23v4H67.908v4.468H51.935" style="fill:#ffbe00;fill-rule:evenodd"/></g><g id="e4de6a32-fbee-421c-8a6c-357b6c45dae1" data-name="font Franklin Gothic No.2 D0"><path d="M91.261,20.831V0h8.4a11.909,11.909,0,0,1,5.84,1.359,8.722,8.722,0,0,1,3.566,3.647,11.2,11.2,0,0,1,1.211,5.275,13.641,13.641,0,0,1-.471,3.606,9.542,9.542,0,0,1-1.7,3.418,8.71,8.71,0,0,1-3.405,2.53,14.069,14.069,0,0,1-5.571,1H91.261M97.209,3.97V16.861h1.574a5.192,5.192,0,0,0,2.6-.632,4.525,4.525,0,0,0,1.883-2.1,8.973,8.973,0,0,0,.727-3.875,9.43,9.43,0,0,0-.457-3.055,4.924,4.924,0,0,0-1.548-2.314,4.539,4.539,0,0,0-2.907-.915h-1.87" style="fill:#ffbe00;fill-rule:evenodd"/></g><g id="bfcfb698-3ecd-4c5d-93ed-e57d119f2027" data-name="font Franklin Gothic No.2 A0"><path d="M116.936,20.831,123.988,0h6.419l7.145,20.831h-6.2l-1.238-3.97h-7.118l-1.346,3.97h-4.71m9.676-15.072-2.288,6.809h4.427l-2.085-6.809h-.054" style="fill:#ffbe00;fill-rule:evenodd"/></g><g id="a15e9e39-4f4a-49a4-a0c4-14d4b5ace7a2" data-name="font Franklin Gothic No.2 I0"><path d="M145.8,20.831V0h5.948V20.831H145.8" style="fill:#ffbe00;fill-rule:evenodd"/></g><g id="afddf7c2-cbd5-464d-bfa0-55668586c1ea" data-name="font Franklin Gothic No.2 L0"><path d="M161.236,20.831V0h5.947V16.363h8.707v4.468H161.236" style="fill:#ffbe00;fill-rule:evenodd"/></g><g id="b7e81cb3-34b3-4bc1-b973-5ff23bd51618" data-name="font Franklin Gothic No.2 Y0"><path d="M189.874,20.831V11.99L182.325,0h6.755l4.347,7.078L197.585,0h5.4l-7.159,11.492v9.339h-5.948" style="fill:#ffbe00;fill-rule:evenodd"/></g></g><g id="a597b3b5-bac7-49ce-946f-36dcb0dfe128" data-name="sprite10"><g id="a936a495-ad5a-44f5-9827-c2e0408534d1" data-name="shape4"><path d="M485.429,90.119h-58.4v-14.9h58.4Z" style="fill:none;stroke:#fc0;stroke-linecap:round;stroke-linejoin:round;stroke-width:0.05000000074505806px"/></g><g id="aaf19daf-162b-4fe1-986e-f2f2dc452d2f" data-name="text6"><g id="f65de1be-1333-4753-908e-ef397f289129" data-name="font FFF Urban Bold Extended B0"><path d="M436.375,87.14V86.13h1V84.072h-1v-.947h1V81.067h-1v-1h-5.047V87.14h5.047m-3-1.065V84.127h1.942v1.948H433.38m0-4.954h1.942V83.07H433.38V81.121" style="fill:#fc0;fill-rule:evenodd"/></g><g id="a453bb44-9446-4a55-bf4e-bbc7382cdad0" data-name="font FFF Urban Bold Extended E0"><path d="M447.325,87.14h4.048V86.075h-4.048V87.14m-2,0h2.052V80.065h-2.052V87.14m2-3.013h3.05V83.07h-3.05v1.057m0-3.006h4.048V80.065h-4.048v1.056" style="fill:#fc0;fill-rule:evenodd"/></g><g id="faed96af-2076-495d-b744-a6ac41272094" data-name="font FFF Urban Bold Extended T0"><path d="M463.377,87.14V81.121h2V80.065h-6.045v1.056h2V87.14h2.052" style="fill:#fc0;fill-rule:evenodd"/></g><g id="aa84140a-2340-4057-8a2e-a6a32b6c8098" data-name="font FFF Urban Bold Extended A0"><path d="M475.38,87.14V84.127h1.942V87.14h2.051V81.067h-1v-1h-4.048v1h-1V87.14h2.052m0-6.019h1.942V83.07H475.38V81.121" style="fill:#fc0;fill-rule:evenodd"/></g></g></g></svg>